<?xml version='1.0' encoding='UTF-8'?>
<svg xmlns="http://www.w3.org/2000/svg" version="1.2" width="591.000000pt" height="591.000000pt" viewBox="0 0 591.000000 591.000000" preserveAspectRatio="xMidYMid meet" baseProfile="tiny-ps">
  <g transform="translate(0.000000,591.000000) scale(0.100000,-0.100000)" fill="#000000" stroke="none">
    <path d="M0 2955 l0 -2955 2955 0 2955 0 0 2955 0 2955 -1432 0 c-787 0 -1429 -2 -1427 -4 2 -2 47 -29 99 -59 52 -30 279 -161 505 -292 225 -130 412 -240 415 -244 3 -3 19 -12 35 -19 17 -8 82 -44 145 -81 109 -65 457 -266 524 -304 17 -9 165 -95 329 -189 l297 -172 0 -283 0 -283 -50 0 -50 0 -2 251 -3 251 -190 110 c-104 61 -261 152 -348 204 -86 52 -160 94 -162 94 -5 0 -444 253 -565 325 -30 18 -255 149 -500 290 -245 141 -454 263 -466 270 -19 12 -31 8 -115 -42 -52 -30 -116 -67 -144 -83 -57 -32 -702 -405 -725 -419 -27 -17 -514 -298 -555 -321 -22 -12 -56 -32 -75 -43 -19 -12 -47 -29 -61 -37 -81 -46 -595 -344 -597 -346 -2 -1 -3 -115 -3 -253 l0 -251 -54 0 -55 0 0 283 1 282 147 84 c81 47 230 133 332 192 102 58 273 157 380 218 107 62 202 116 210 121 30 18 886 515 922 534 116 66 358 208 358 212 0 2 -682 4 -1515 4 l-1515 0 0 -2955z m2414 1689 c9 -8 16 -22 16 -30 0 -18 -24 -18 -40 1 -7 8 -16 12 -21 9 -15 -9 -10 -34 9 -41 47 -17 69 -72 40 -101 -21 -21 -75 -15 -92 10 -9 12 -16 26 -16 30 0 15 33 8 45 -9 14 -19 48 -11 39 9 -3 7 -19 22 -37 33 -57 36 -44 105 19 105 13 0 30 -7 38 -16z m126 -79 c0 -88 -1 -95 -20 -95 -19 0 -20 7 -20 95 0 88 1 95 20 95 19 0 20 -7 20 -95z m132 35 l27 -55 0 58 c1 50 3 57 21 57 19 0 20 -7 20 -95 0 -89 -1 -95 -21 -95 -15 0 -26 14 -44 53 l-24 52 0 -52 c-1 -46 -4 -53 -21 -53 -19 0 -20 7 -20 96 0 85 2 95 17 92 10 -2 30 -28 45 -58z m240 43 c21 -19 24 -53 4 -53 -7 0 -20 10 -28 22 -13 20 -17 21 -32 9 -16 -14 -22 -74 -10 -105 8 -20 44 -21 44 -1 0 8 9 15 20 15 24 0 26 -22 4 -44 -20 -20 -68 -21 -88 -1 -33 33 -32 121 1 158 20 22 61 22 85 0z m193 -3 c0 -10 -12 -16 -32 -18 -25 -2 -33 -8 -33 -23 0 -14 7 -19 25 -19 16 0 25 -6 25 -15 0 -9 -9 -15 -25 -15 -20 0 -25 -5 -25 -25 0 -22 4 -25 35 -25 24 0 35 -5 35 -15 0 -12 -13 -15 -55 -15 l-55 0 0 96 0 95 53 -3 c38 -2 52 -7 52 -18z m250 0 c22 -24 15 -59 -22 -106 l-25 -34 31 0 c21 0 31 -5 31 -15 0 -12 -13 -15 -55 -15 -66 0 -68 8 -20 69 35 44 44 74 25 86 -6 3 -13 -1 -16 -9 -7 -18 -44 -22 -44 -4 0 20 32 48 55 48 12 0 30 -9 40 -20z m167 3 c13 -12 18 -31 18 -75 0 -74 -12 -98 -49 -98 -35 0 -47 14 -56 62 -17 92 35 158 87 111z m168 -78 c0 -88 -1 -95 -20 -95 -18 0 -20 7 -20 71 0 66 -1 70 -20 64 -37 -12 -22 22 18 38 20 9 38 16 40 16 1 1 2 -42 2 -94z m180 81 c0 -8 -9 -17 -19 -21 -11 -3 -22 -13 -25 -21 -4 -11 -2 -15 8 -11 25 10 56 -22 56 -58 0 -39 -22 -65 -55 -65 -33 0 -55 36 -55 88 0 35 6 49 29 73 31 31 61 38 61 15z m-1715 -76 c0 -18 -6 -26 -23 -28 -24 -4 -38 18 -28 44 3 9 15 14 28 12 17 -2 23 -10 23 -28z m1940 0 c0 -18 -6 -26 -23 -28 -13 -2 -25 3 -28 12 -10 26 4 48 28 44 17 -2 23 -10 23 -28z m362 -346 c22 -22 24 -30 18 -71 -16 -109 -115 -332 -261 -590 -51 -90 -64 -121 -64 -156 0 -52 13 -67 57 -67 54 0 116 64 133 137 26 119 104 319 128 328 20 7 49 -2 55 -19 3 -8 -15 -76 -39 -152 -48 -149 -64 -224 -46 -224 31 0 193 252 233 361 23 64 50 94 91 104 44 11 44 -14 -1 -143 -47 -136 -71 -266 -53 -284 20 -20 56 6 98 71 40 63 66 75 72 33 2 -12 10 -22 19 -22 8 0 17 -9 20 -20 3 -10 13 -22 22 -25 41 -13 191 57 191 90 0 16 -27 21 -135 29 -86 6 -120 20 -135 57 -35 82 69 212 231 288 118 57 189 48 189 -22 0 -41 -20 -70 -64 -91 -39 -19 -66 -12 -66 16 0 15 -5 18 -22 13 -63 -19 -178 -118 -178 -153 0 -8 22 -12 64 -12 105 0 167 -16 199 -50 33 -37 34 -61 3 -114 -43 -74 -165 -146 -261 -153 -55 -5 -62 -3 -86 21 l-26 25 -29 -30 c-38 -40 -75 -59 -117 -59 -53 0 -77 26 -85 90 l-7 54 -37 -61 c-51 -83 -118 -143 -159 -143 -18 0 -40 7 -49 15 -16 14 -22 13 -69 -16 -37 -23 -68 -34 -107 -37 -50 -4 -58 -2 -85 24 -16 15 -34 44 -39 63 -15 53 -12 196 5 297 41 232 189 544 288 604 43 27 73 25 104 -6z m-640 -380 c3 -9 -12 -61 -36 -118 -23 -55 -51 -122 -62 -149 l-19 -47 66 69 c130 138 224 143 224 13 -1 -144 -138 -385 -253 -444 -57 -28 -104 -28 -126 1 l-18 23 -35 -83 c-19 -46 -61 -150 -92 -231 -61 -157 -77 -174 -110 -126 -23 33 -20 50 38 203 l54 140 -38 3 c-48 4 -82 39 -89 93 l-6 42 -33 -51 c-58 -90 -145 -151 -197 -138 -15 4 -39 20 -53 36 l-25 28 -36 -28 c-55 -45 -165 -98 -216 -105 -58 -9 -124 14 -159 56 -63 75 -33 249 63 366 44 54 128 112 186 128 47 14 57 14 89 1 23 -10 37 -23 42 -40 7 -29 -11 -93 -35 -119 -54 -63 -104 -29 -69 48 27 59 -33 33 -110 -49 -65 -68 -102 -144 -102 -208 0 -94 68 -113 195 -54 96 44 139 85 153 147 26 112 137 260 229 308 45 22 127 29 138 10 5 -6 13 -3 22 10 10 14 25 21 49 21 43 0 52 -20 30 -67 -42 -89 -82 -313 -60 -336 13 -13 64 25 88 66 14 23 66 146 117 272 96 242 125 305 143 317 19 13 46 9 53 -8z m-1963 -113 c3 -5 -39 -100 -93 -212 -146 -302 -279 -615 -265 -628 8 -9 75 64 121 132 26 37 50 67 54 67 10 0 29 -58 29 -87 0 -36 -59 -119 -139 -196 -58 -57 -74 -67 -104 -67 -49 0 -65 8 -83 41 -13 26 -13 36 1 88 19 75 187 484 232 566 4 7 2 7 -4 0 -6 -5 -95 -138 -198 -295 -272 -415 -291 -440 -330 -440 -45 0 -69 29 -60 72 12 57 84 303 134 459 27 82 47 149 45 149 -6 0 -102 -177 -172 -316 -86 -171 -142 -302 -196 -454 l-41 -115 -36 -3 c-24 -2 -43 3 -60 17 l-24 19 23 67 c33 96 171 396 261 570 156 299 262 461 310 471 14 3 38 10 53 16 37 14 78 3 78 -22 0 -10 -36 -123 -80 -250 -86 -252 -134 -403 -119 -380 6 8 51 81 102 162 117 188 280 423 352 511 l55 67 75 0 c40 0 76 -4 79 -9z m704 -277 c14 -10 22 -25 22 -45 0 -43 -58 -187 -80 -199 -44 -24 -71 24 -52 94 l10 41 -34 -39 c-51 -59 -156 -219 -209 -318 -57 -107 -65 -114 -110 -101 -29 9 -39 8 -57 -7 -59 -46 -112 -64 -185 -65 -83 0 -122 21 -137 73 -13 45 1 82 44 123 28 27 35 39 25 43 -8 3 -19 23 -25 46 -14 51 9 107 66 163 74 73 191 125 239 107 37 -14 35 -72 -4 -111 -32 -31 -81 -40 -81 -14 0 8 -5 15 -10 15 -18 0 -120 -105 -120 -123 0 -16 2 -16 38 -1 50 23 82 23 96 1 9 -16 4 -25 -39 -60 -65 -54 -135 -125 -135 -136 0 -20 33 -41 63 -41 52 0 112 37 185 115 67 72 72 81 122 218 55 151 86 197 135 197 30 0 33 -25 10 -91 l-15 -44 27 35 c60 78 137 138 178 140 6 0 21 -7 33 -16z m-1769 -1330 c-1 -193 2 -249 13 -259 7 -7 121 -74 253 -150 132 -76 292 -168 355 -205 63 -37 239 -139 390 -226 151 -87 277 -161 280 -164 3 -4 12 -9 21 -13 9 -3 158 -88 330 -188 454 -264 603 -349 612 -349 5 0 68 34 140 77 645 374 1393 806 1406 811 9 3 34 17 56 32 22 15 178 107 348 204 l307 178 0 249 0 249 50 0 50 0 0 -282 0 -283 -303 -174 c-166 -96 -397 -230 -514 -298 -116 -67 -219 -126 -230 -129 -10 -4 -25 -13 -33 -19 -19 -16 -898 -525 -919 -533 -9 -3 -18 -8 -21 -12 -3 -3 -70 -43 -150 -90 -80 -46 -154 -90 -166 -97 -18 -12 -37 -3 -185 83 -90 53 -180 105 -199 116 -19 11 -176 102 -348 202 -172 99 -332 192 -355 205 -23 13 -78 45 -122 71 -44 26 -98 58 -120 70 -22 12 -123 70 -224 129 -101 58 -209 120 -240 138 -31 17 -175 100 -321 185 l-265 154 -3 282 -3 282 55 0 55 0 0 -246z m1924 -76 c6 -18 -11 -48 -27 -48 -20 0 -37 25 -30 44 7 19 50 22 57 4z m415 -14 c3 -23 -18 -37 -43 -28 -16 6 -20 35 -8 48 14 14 48 1 51 -20z m418 11 c7 -18 -13 -45 -33 -45 -17 0 -27 24 -19 45 7 20 45 19 52 0z"/>
    <path d="M3476 4614 c-10 -26 -7 -102 5 -110 15 -9 29 15 29 51 0 61 -20 96 -34 59z"/>
    <path d="M3820 4530 c0 -20 5 -30 15 -30 10 0 15 10 15 30 0 20 -5 30 -15 30 -10 0 -15 -10 -15 -30z"/>
    <path d="M4359 4134 c-52 -59 -162 -304 -190 -421 -11 -47 -19 -89 -17 -95 5 -14 170 331 203 423 30 86 32 124 4 93z"/>
    <path d="M3847 3580 c-33 -26 -117 -140 -178 -242 -47 -78 -49 -83 -29 -90 11 -4 28 -4 38 -1 82 31 211 225 212 321 0 37 -8 40 -43 12z"/>
    <path d="M3313 3499 c-88 -43 -196 -203 -210 -310 -5 -36 -4 -41 13 -37 32 6 152 166 201 266 24 52 43 95 41 98 -2 2 -23 -6 -45 -17z"/>
  </g>
</svg>
